<svg xmlns="http://www.w3.org/2000/svg" width="69" height="50"><path data-name="Фигура 13" d="M19.211 16.477h-2.743a1.179 1.179 0 00-1.1 1.1v20.675a1.064 1.064 0 00.33.777 1.03 1.03 0 00.771.333h2.743a1.009 1.009 0 00.738-.333.993.993 0 00.353-.777V17.587a1.051 1.051 0 00-.353-.744.937.937 0 00-.739-.366zm25.027.056h-2.214a1.478 1.478 0 00-1.531.633l-6.323 13.99h-.11l-6.026-13.99a1.015 1.015 0 00-.991-.633h-2.985a.939.939 0 00-.881.389.818.818 0 00.055.888l9.8 21.509a1 1 0 00.992.577h.3a1 1 0 00.936-.577l9.8-21.508a.821.821 0 00.055-.888.976.976 0 00-.877-.391zm13.262-.521a10.915 10.915 0 00-8.162 3.509 11.6 11.6 0 00-3.393 8.361 11.889 11.889 0 003.371 8.45 11.089 11.089 0 0016.291 0A11.8 11.8 0 0069 27.88a11.6 11.6 0 00-3.393-8.361 10.866 10.866 0 00-8.107-3.508zM62.292 33.1a6.594 6.594 0 01-9.617.034 7.412 7.412 0 01-1.949-5.241 7.144 7.144 0 011.949-5.108 6.413 6.413 0 014.825-2.043 6.264 6.264 0 014.792 2.043 7.14 7.14 0 011.949 5.108 7.544 7.544 0 01-1.949 5.207zM8.912 16.477H1.1a1.038 1.038 0 00-.738.356 1.049 1.049 0 00-.352.755v2.765a1.087 1.087 0 00.352.777 1.05 1.05 0 00.738.333h3.966v19.908a3.653 3.653 0 01-3.173 3.642H1.1A1.133 1.133 0 000 46.124v2.765a1.177 1.177 0 00.3.777 1.041 1.041 0 00.793.333h.386a8.528 8.528 0 008.47-8.039 2.567 2.567 0 00.044-.522V17.587a1.063 1.063 0 00-.33-.777.967.967 0 00-.751-.333z" fill-rule="evenodd" fill="#0b1f35"/><path data-name="Фигура 13 копия" d="M.067 0c-.683 12.98 9.891 14.824 9.891 14.824C9.43.61.067 0 .067 0z" fill="#1bc339" fill-rule="evenodd"/></svg>