<svg width="48" height="48" viewBox="0 0 48 48" fill="none" xmlns="http://www.w3.org/2000/svg">
<g clip-path="url(#clip0_3255_181)">
<path d="M23.9905 27.2813C24.5089 27.2813 24.9298 26.8612 24.9298 26.3438C24.9298 25.8263 24.5089 25.4062 23.9905 25.4062C23.472 25.4062 23.0511 25.8263 23.0511 26.3438C23.0511 26.8612 23.472 27.2813 23.9905 27.2813Z" fill="black"/>
<path d="M23.454 47.7315C23.6173 47.848 23.8085 47.9062 24 47.9062C24.1915 47.9062 24.3827 47.848 24.546 47.7315C34.1166 40.9086 43.726 37.9149 43.726 23.8761V6.49571C43.726 6.00828 43.3514 5.60216 42.8648 5.56151L40.4233 5.35789C34.8258 4.89244 29.319 3.05625 24.4979 0.0485538C24.1934 -0.14151 23.8066 -0.14151 23.5021 0.0485538C18.6806 3.05625 13.1738 4.89244 7.57632 5.35826L5.13515 5.56151C4.64824 5.60216 4.27397 6.00828 4.27397 6.49571V23.8761C4.27397 38.3107 15.233 41.8707 23.454 47.7315V47.7315ZM6.15264 7.35814L7.73263 7.22667C13.4351 6.75206 19.0461 4.92833 24 1.9437C28.9535 4.92833 34.5649 6.75206 40.267 7.22667L41.8474 7.35814V23.8761C41.8474 36.535 33.3959 39.2512 23.9985 45.8214C15.7511 40.1077 6.15264 36.8653 6.15264 23.8761V7.35814Z" fill="black"/>
<path d="M23.4525 40.9171C23.7938 41.1497 24.2235 41.1328 24.5474 40.8926C33.051 35.0182 38.09 33.0853 38.09 23.8773V11.581C38.09 11.117 37.7499 10.7226 37.2901 10.6537C32.7945 9.97955 28.4681 8.58319 24.4308 6.50347C24.1402 6.35369 23.7941 6.37273 23.5278 6.52434C19.5018 8.59307 15.1893 9.98248 10.7099 10.6537C10.2501 10.7226 9.90997 11.1166 9.90997 11.581V23.8773C9.90997 33.1721 15.4289 35.4532 23.4525 40.9171V40.9171ZM11.7886 12.3804C15.6953 11.7209 19.4732 10.5347 23.0511 8.84832V22.5937C23.0511 23.1115 23.4716 23.5312 23.9905 23.5312C24.5093 23.5312 24.9298 23.1115 24.9298 22.5937V8.83953C28.5128 10.53 32.2977 11.7194 36.2113 12.3804V23.8773C36.2113 31.4982 32.6345 33.1597 24.9298 38.3602V30.0937C24.9298 29.5759 24.5093 29.1562 23.9905 29.1562C23.4716 29.1562 23.0511 29.5759 23.0511 30.0937V38.3873C15.8524 33.6046 11.7886 31.5608 11.7886 23.8773V12.3804Z" fill="black"/>
</g>
<defs>
<clipPath id="clip0_3255_181">
<rect width="48" height="48" fill="white"/>
</clipPath>
</defs>
</svg>
