<svg width="48" height="48" viewBox="0 0 48 48" fill="none" xmlns="http://www.w3.org/2000/svg">
<g clip-path="url(#clip0_3255_174)">
<g clip-path="url(#clip1_3255_174)">
<path d="M28.3636 13.0908H20.7273C20.1251 13.0908 19.6364 13.5795 19.6364 14.1817V28.3635H14.1818C13.5796 28.3635 13.0909 28.8523 13.0909 29.4545C13.0909 30.0566 13.5796 30.5454 14.1818 30.5454H19.6364V33.8181C19.6364 34.4203 20.1251 34.909 20.7273 34.909C21.3295 34.909 21.8182 34.4203 21.8182 33.8181V30.5454H27.2727C27.8749 30.5454 28.3636 30.0566 28.3636 29.4545C28.3636 28.8523 27.8749 28.3635 27.2727 28.3635H21.8182V26.1817H28.3636C31.9724 26.1817 34.9091 23.245 34.9091 19.6363C34.9091 16.0275 31.9724 13.0908 28.3636 13.0908ZM28.3636 23.9999H21.8182V15.2726H28.3636C30.7702 15.2726 32.7273 17.2297 32.7273 19.6363C32.7273 22.0428 30.7702 23.9999 28.3636 23.9999Z" fill="black"/>
<path d="M24 0C10.7673 0 0 10.7673 0 24C0 37.2327 10.7673 48 24 48C37.2327 48 48 37.2327 48 24C48 10.7673 37.2327 0 24 0ZM24 45.8182C11.9695 45.8182 2.18182 36.0305 2.18182 24C2.18182 11.9695 11.9695 2.18182 24 2.18182C36.0305 2.18182 45.8182 11.9695 45.8182 24C45.8182 36.0305 36.0305 45.8182 24 45.8182Z" fill="black"/>
</g>
</g>
<defs>
<clipPath id="clip0_3255_174">
<rect width="48" height="48" fill="white"/>
</clipPath>
<clipPath id="clip1_3255_174">
<rect width="48" height="48" fill="white"/>
</clipPath>
</defs>
</svg>
