<svg width="48" height="48" viewBox="0 0 48 48" fill="none" xmlns="http://www.w3.org/2000/svg">
<path fill-rule="evenodd" clip-rule="evenodd" d="M15.2285 7.62842C15.2285 5.50586 13.5015 3.77881 11.3785 3.77881C9.25598 3.77881 7.52893 5.50586 7.52893 7.62842C7.52893 9.75134 9.25598 11.478 11.3785 11.478C13.5015 11.4784 15.2285 9.75134 15.2285 7.62842ZM9.40393 7.62842C9.40393 6.53967 10.2898 5.65381 11.3785 5.65381C12.4677 5.65381 13.3535 6.53967 13.3535 7.62842C13.3535 8.71716 12.4677 9.60303 11.3785 9.60303C10.2898 9.60339 9.40393 8.71716 9.40393 7.62842Z" fill="black"/>
<path fill-rule="evenodd" clip-rule="evenodd" d="M37.2528 24.563C34.8369 24.563 32.7836 25.165 31.5425 26.1216L28.1803 25.373C27.676 25.2606 27.1743 25.5789 27.0615 26.0842C26.9491 26.5896 27.2673 27.0906 27.7731 27.203L30.3501 27.7769C30.3021 27.964 30.2765 28.1566 30.2765 28.3533C30.2765 29.627 31.3191 30.7153 32.989 31.395L31.4879 32.9393C31.1272 33.3107 31.1356 33.9043 31.507 34.265C31.689 34.4423 31.9248 34.5302 32.1603 34.5302C32.4045 34.5302 32.6488 34.4353 32.8326 34.2463L35.0504 31.9645C35.7374 32.0806 36.4761 32.1436 37.2528 32.1436C41.2299 32.1436 44.2291 30.5139 44.2291 28.3533C44.2291 26.1926 41.2299 24.563 37.2528 24.563V24.563ZM37.2528 30.2686C34.1862 30.2686 32.1515 29.1157 32.1515 28.3533C32.1515 28.1936 32.2416 28.0171 32.4104 27.8376C32.4393 27.8124 32.4668 27.7856 32.4921 27.7563C33.1919 27.1027 34.9241 26.438 37.2528 26.438C40.3195 26.438 42.3541 27.5908 42.3541 28.3533C42.3541 29.1157 40.3195 30.2686 37.2528 30.2686Z" fill="black"/>
<path fill-rule="evenodd" clip-rule="evenodd" d="M26.1046 41.1684L27.6057 39.6237C27.9664 39.2524 27.958 38.6591 27.5867 38.2981C27.2157 37.9373 26.6221 37.9458 26.261 38.3171L24.0432 40.5986C23.3562 40.4825 22.6176 40.4195 21.8408 40.4195C17.8638 40.4195 14.8645 42.0492 14.8645 44.2098C14.8645 46.3704 17.8638 48.0001 21.8408 48.0001C25.8179 48.0001 28.8171 46.3704 28.8171 44.2098C28.8171 42.9361 27.7745 41.8477 26.1046 41.1684V41.1684ZM21.8408 46.1251C18.7742 46.1251 16.7395 44.9722 16.7395 44.2098C16.7395 43.4473 18.7742 42.2945 21.8408 42.2945C24.9075 42.2945 26.9421 43.4473 26.9421 44.2098C26.9421 44.9722 24.9075 46.1251 21.8408 46.1251Z" fill="black"/>
<path fill-rule="evenodd" clip-rule="evenodd" d="M20.451 25.5725C20.5199 25.5879 20.588 25.5952 20.6558 25.5952C21.0853 25.5952 21.4728 25.2979 21.5698 24.8613C21.6823 24.356 21.364 23.855 20.8586 23.7426L18.2812 23.1683C18.3296 22.9812 18.3549 22.7889 18.3549 22.5919C18.3549 20.8352 16.4008 19.6487 14.1625 19.1151L18.3457 10.7366C18.3523 10.723 18.3589 10.7091 18.3651 10.6952C18.791 9.72583 19.0071 8.69421 19.0071 7.62854C19.0071 3.42224 15.5852 0 11.3785 0C7.17224 0 3.75 3.42224 3.75 7.62854C3.75 8.69385 3.96606 9.72546 4.39233 10.6952C4.39819 10.7091 4.40479 10.723 4.41174 10.7366L8.599 19.1235C6.35486 19.6699 4.40222 20.8568 4.40222 22.5923C4.40222 24.7529 7.40149 26.3822 11.3785 26.3822C13.7944 26.3822 15.8481 25.7802 17.0892 24.824L20.451 25.5725ZM5.625 7.62854C5.625 4.45605 8.20605 1.875 11.3785 1.875C14.551 1.875 17.1321 4.45605 17.1321 7.62854C17.1321 8.42542 16.9724 9.19629 16.6575 9.92029L11.3785 20.4935L6.09998 9.92029C5.78467 9.19592 5.625 8.42505 5.625 7.62854ZM6.27722 22.5923C6.27722 22.0997 7.49817 21.2435 9.46216 20.8524L10.5399 23.0109C10.6985 23.3287 11.0233 23.5294 11.3785 23.5294C11.7338 23.5294 12.0586 23.3287 12.2175 23.0109L13.2979 20.8466C15.2842 21.2234 16.4799 22.0774 16.4799 22.5919C16.4799 22.752 16.389 22.9292 16.2195 23.1094C16.1909 23.1346 16.1638 23.161 16.1385 23.1896C15.4387 23.8429 13.7065 24.5072 11.3785 24.5072C8.31189 24.5072 6.27722 23.3547 6.27722 22.5923V22.5923Z" fill="black"/>
<path fill-rule="evenodd" clip-rule="evenodd" d="M29.5466 35.3442C29.0303 35.3442 28.6091 35.765 28.6091 36.2817C28.6091 36.7981 29.0303 37.2192 29.5466 37.2192C30.063 37.2192 30.4841 36.7981 30.4841 36.2817C30.4841 35.765 30.063 35.3442 29.5466 35.3442Z" fill="black"/>
<path fill-rule="evenodd" clip-rule="evenodd" d="M24.3157 26.4102C24.832 26.4102 25.2532 25.989 25.2532 25.4727C25.2532 24.9563 24.832 24.5352 24.3157 24.5352C23.7993 24.5352 23.3782 24.9563 23.3782 25.4727C23.3782 25.989 23.7993 26.4102 24.3157 26.4102Z" fill="black"/>
</svg>
