<svg width="48" height="48" viewBox="0 0 48 48" fill="none" xmlns="http://www.w3.org/2000/svg">
<g clip-path="url(#clip0_3255_83)">
<path d="M41.8886 46.3093L35.5606 32.9236C35.4343 32.6565 35.2155 32.4519 34.9531 32.3402L31.8049 30.9387L37.2598 21.7964C37.2728 21.7745 37.2851 21.7523 37.2968 21.7296C38.3813 19.6128 38.9313 17.3254 38.9313 14.9313C38.9313 10.9039 37.3519 7.12821 34.4842 4.29986C31.617 1.47218 27.8184 -0.0551051 23.7886 0.00151989C19.8747 0.0558011 16.1896 1.6279 13.4119 4.4284C10.6344 7.22871 9.09205 10.9265 9.0688 14.8408C9.05455 17.2329 9.61977 19.6149 10.703 21.7295C10.7146 21.7521 10.7269 21.7744 10.7399 21.7963L16.1946 30.9385L13.0283 32.3477C12.7693 32.4629 12.5602 32.6672 12.4391 32.9235L6.11127 46.3093C5.89949 46.757 5.98883 47.2893 6.33514 47.6434C6.68136 47.9975 7.21124 48.0989 7.66377 47.8976L15.5911 44.3682L23.5184 47.8976C23.825 48.034 24.1752 48.034 24.4819 47.8976L32.4092 44.3682L40.3365 47.8976C40.4914 47.9665 40.6553 48 40.8179 48C41.1302 48 41.4374 47.8765 41.6651 47.6435C42.0111 47.2893 42.1004 46.7572 41.8886 46.3093ZM12.7943 20.6162C11.8821 18.8226 11.4257 16.8845 11.4378 14.855C11.4779 8.06477 17.0333 2.46405 23.8216 2.37002C27.2121 2.32446 30.4087 3.60743 32.8209 5.98652C35.2339 8.36618 36.5626 11.5428 36.5626 14.9314C36.5626 16.9338 36.1061 18.8461 35.2057 20.6162L25.0172 37.6926C24.7061 38.2138 24.2023 38.2701 24.0001 38.2701C23.7978 38.2701 23.2939 38.2138 22.983 37.6926L12.7943 20.6162ZM32.8907 41.9898C32.584 41.8534 32.2339 41.8534 31.9272 41.9898L23.9999 45.5191L16.0726 41.9898C15.7659 41.8534 15.4158 41.8534 15.1091 41.9898L9.61742 44.4348L14.3929 34.3333L17.417 32.9875L20.9484 38.9062C21.5957 39.9911 22.7364 40.6388 23.9997 40.6388C25.263 40.6388 26.4037 39.9911 27.051 38.9063L30.5824 32.9876L33.6068 34.3339L38.382 44.4349L32.8907 41.9898Z" fill="black"/>
<path d="M24.0004 9.52563C21.0197 9.52563 18.5948 11.9505 18.5948 14.9311C18.5948 17.9117 21.0197 20.3365 24.0004 20.3365C26.981 20.3366 29.4058 17.9117 29.4058 14.9311C29.4058 11.9505 26.981 9.52563 24.0004 9.52563ZM24.0004 17.9678C22.3259 17.9679 20.9635 16.6057 20.9635 14.9311C20.9635 13.2566 22.3258 11.8943 24.0004 11.8943C25.6748 11.8943 27.0371 13.2566 27.0371 14.9311C27.0371 16.6055 25.6748 17.9678 24.0004 17.9678Z" fill="black"/>
</g>
<defs>
<clipPath id="clip0_3255_83">
<rect width="48" height="48" fill="white"/>
</clipPath>
</defs>
</svg>
