<svg width="48" height="48" viewBox="0 0 48 48" fill="none" xmlns="http://www.w3.org/2000/svg">
<g clip-path="url(#clip0_3255_164)">
<path d="M24.0171 47.1374H24.0152C11.2579 47.1374 0.878776 36.7583 0.877853 24.0005C0.877853 11.2431 11.2565 0.864014 24.0143 0.864014C36.7717 0.864014 47.1503 11.2431 47.1503 24.0005C47.1503 36.7583 36.7731 47.1374 24.0171 47.1374ZM24.0143 2.71017C12.2746 2.71017 2.72401 12.2612 2.72401 24.0005C2.72493 35.7402 12.276 45.2912 24.0152 45.2912H24.0171C35.7549 45.2912 45.3042 35.7406 45.3042 24.0005C45.3042 12.2612 35.7535 2.71017 24.0143 2.71017Z" fill="black"/>
<path d="M24.0166 40.3847H24.0152C14.9811 40.3847 7.63062 33.0343 7.6297 24.0001C7.6297 14.966 14.9797 7.61597 24.0143 7.61597C33.0489 7.61597 40.3989 14.966 40.3989 24.0001C40.3989 33.0343 33.0499 40.3847 24.0166 40.3847ZM24.0143 9.46212C15.9979 9.46212 9.47585 15.9837 9.47585 24.0001C9.47678 32.017 15.9992 38.5386 24.0152 38.5386H24.0166C32.0317 38.5386 38.5528 32.0166 38.5528 24.0001C38.5528 15.9837 32.0308 9.46212 24.0143 9.46212Z" fill="black"/>
<path d="M24.0143 26.8773C23.2463 26.8773 22.524 26.5791 21.9808 26.0373C20.8579 24.912 20.8583 23.0862 21.9799 21.9656C22.5235 21.4219 23.2459 21.1228 24.0143 21.1228C24.7828 21.1228 25.5051 21.4219 26.0488 21.966C27.1703 23.0903 27.1694 24.9162 26.0479 26.0363C25.5046 26.5791 24.7823 26.8773 24.0143 26.8773ZM24.0143 22.969C23.7388 22.969 23.4803 23.076 23.2851 23.2713C22.8831 23.6733 22.8835 24.3282 23.286 24.7316C23.6723 25.1174 24.3535 25.1197 24.7431 24.7302C25.1451 24.3287 25.1446 23.6737 24.7426 23.2703C24.5483 23.0765 24.2899 22.969 24.0143 22.969Z" fill="black"/>
<path d="M25.3962 23.5416C25.1598 23.5416 24.924 23.4516 24.7435 23.2711C24.3831 22.9107 24.3831 22.3264 24.7435 21.9659L31.1141 15.5953C31.4746 15.2348 32.0589 15.2348 32.4194 15.5953C32.7798 15.9558 32.7798 16.5401 32.4194 16.9005L26.0488 23.2711C25.8688 23.4516 25.6325 23.5416 25.3962 23.5416Z" fill="black"/>
<path d="M22.6228 23.5319C22.3865 23.5319 22.1506 23.4419 21.9702 23.2614L17.2394 18.5302C16.8789 18.1697 16.8789 17.5854 17.2394 17.2245C17.5998 16.8645 18.1842 16.8641 18.5446 17.2245L23.2754 21.9562C23.6358 22.3167 23.6358 22.901 23.2754 23.2614C23.0949 23.4424 22.8586 23.5319 22.6228 23.5319Z" fill="black"/>
</g>
<defs>
<clipPath id="clip0_3255_164">
<rect width="48" height="48" fill="white"/>
</clipPath>
</defs>
</svg>
