<svg width="48" height="48" fill="none" xmlns="http://www.w3.org/2000/svg"><path fill-rule="evenodd" clip-rule="evenodd" d="M39.754 9.39l-.002-.032a.976.976 0 00-.047-.237l-.01-.028a1 1 0 00-.047-.107l-.003-.005a.913.913 0 00-.065-.103c-.005-.009-.012-.017-.018-.025a.96.96 0 00-.081-.095L30.997.275a.944.944 0 00-.094-.082l-.026-.018a.888.888 0 00-.102-.065l-.008-.003a.984.984 0 00-.25-.09.994.994 0 00-.12-.014L30.367 0H9.094a.937.937 0 00-.938.937v40.128c0 .517.42.937.938.937h14.114v5.06a.938.938 0 001.436.795l3.57-2.24 3.571 2.24a.939.939 0 001.436-.795v-5.06h5.597c.517 0 .937-.42.937-.937V9.42l-.001-.032zM31.272 3.2l5.282 5.283h-5.282V3.2zm-8.526 25.756c-.066-.18-.173-.472-.176-.592.073-.09.327-.251.483-.35.334-.21.713-.45.987-.824.277-.379.39-.815.49-1.2.043-.17.114-.441.174-.544.033-.007.102-.017.232-.017.104 0 .221.006.345.012.142.007.289.014.442.014.337 0 .61-.038.857-.12.432-.144.777-.422 1.082-.667.168-.136.45-.363.548-.376.108.014.39.24.558.376.304.245.65.523 1.082.667.247.082.52.12.857.12.153 0 .3-.007.441-.014.124-.006.241-.012.346-.012.13 0 .199.01.232.017.06.103.13.375.174.543.1.386.212.822.49 1.2.274.375.652.614.987.825.155.099.41.26.482.35-.002.12-.11.413-.175.592-.14.38-.297.81-.297 1.287 0 .477.157.908.297 1.288.066.18.173.472.175.592-.073.09-.327.25-.482.35-.335.21-.713.45-.988.824-.277.378-.39.815-.49 1.2-.043.169-.113.441-.173.544a1.17 1.17 0 01-.232.017c-.105 0-.222-.006-.346-.012-.141-.007-.288-.015-.44-.015-.339 0-.611.039-.858.12-.432.144-.778.423-1.082.668-.166.134-.443.356-.553.376-.11-.02-.387-.242-.553-.376-.305-.245-.65-.524-1.082-.667a2.658 2.658 0 00-.857-.12c-.153 0-.3.007-.442.014-.123.006-.24.012-.345.012-.13 0-.199-.01-.232-.017-.06-.103-.13-.375-.174-.544-.1-.385-.213-.822-.49-1.2-.274-.374-.653-.614-.987-.825-.155-.098-.41-.259-.483-.35.003-.119.11-.412.176-.59.14-.38.297-.811.297-1.288 0-.478-.158-.909-.297-1.288zm8.6 16.41l-2.633-1.651a.94.94 0 00-.997 0l-2.633 1.652V36.93l.293-.011c.124-.007.24-.013.347-.013.166 0 .237.015.264.025.112.037.327.21.5.349.437.352.981.79 1.728.79.746 0 1.29-.438 1.728-.79.173-.14.387-.312.499-.35a.928.928 0 01.265-.024c.106 0 .223.006.347.013.095.004.193.008.292.01v8.438zm1.875-5.24v-3.952c.279-.378.395-.827.494-1.207.051-.2.122-.474.187-.561.064-.088.302-.239.476-.349.461-.291 1.036-.654 1.264-1.34.225-.678-.01-1.317-.198-1.832-.086-.233-.183-.497-.183-.642 0-.144.097-.409.183-.642.189-.514.423-1.154.198-1.831-.228-.686-.803-1.049-1.264-1.34-.174-.11-.412-.261-.476-.348-.065-.088-.136-.362-.187-.562-.135-.522-.303-1.171-.877-1.593-.457-.334-.986-.373-1.345-.373-.151 0-.298.007-.44.015a7.217 7.217 0 01-.346.012.919.919 0 01-.265-.025c-.111-.037-.326-.21-.498-.349-.438-.352-.983-.79-1.73-.79-.745 0-1.29.438-1.728.79-.172.139-.387.312-.498.35a.922.922 0 01-.265.024c-.106 0-.223-.006-.348-.013a8.713 8.713 0 00-.439-.014c-.358 0-.887.039-1.344.373-.575.422-.743 1.071-.877 1.593-.052.2-.123.474-.187.561-.064.088-.303.239-.477.348-.461.292-1.035.655-1.263 1.34-.226.678.009 1.318.197 1.832.086.233.183.498.183.642 0 .145-.097.41-.183.643-.188.514-.423 1.154-.197 1.831.228.686.802 1.049 1.263 1.34.175.11.413.261.477.349.064.087.135.36.187.56.098.381.215.83.494 1.208v3.952H10.03V1.875h19.366v7.546c0 .518.42.938.937.938h7.546v29.768H33.22z" fill="#000"/><path fill-rule="evenodd" clip-rule="evenodd" d="M13.675 10.359h12.078a.938.938 0 000-1.875H13.675a.937.937 0 100 1.875zm20.666 2.857H13.675a.937.937 0 100 1.875H34.34a.937.937 0 100-1.875zm-3.75 4.732H13.675a.938.938 0 000 1.875H30.59a.937.937 0 100-1.875zm3.75 0a.94.94 0 00-.937.938.94.94 0 00.937.937.939.939 0 00.938-.938.939.939 0 00-.938-.937z" fill="#000"/></svg>