<svg width="48" height="48" fill="none" xmlns="http://www.w3.org/2000/svg"><path fill-rule="evenodd" clip-rule="evenodd" d="M15.229 7.628a3.854 3.854 0 00-3.85-3.85 3.854 3.854 0 00-3.85 3.85 3.854 3.854 0 003.85 3.85 3.854 3.854 0 003.85-3.85zm-5.825 0c0-1.088.886-1.974 1.975-1.974s1.975.886 1.975 1.974a1.977 1.977 0 01-1.975 1.975 1.977 1.977 0 01-1.975-1.975zm27.849 16.935c-2.416 0-4.47.602-5.71 1.559l-3.363-.749a.938.938 0 00-.407 1.83l2.577.574c-.048.187-.074.38-.074.576 0 1.274 1.043 2.362 2.713 3.042l-1.501 1.544a.938.938 0 001.345 1.307l2.217-2.282c.687.117 1.426.18 2.203.18 3.977 0 6.976-1.63 6.976-3.79 0-2.161-3-3.791-6.976-3.791zm0 5.706c-3.067 0-5.102-1.153-5.102-1.916 0-.16.09-.336.26-.515a.814.814 0 00.081-.082c.7-.653 2.432-1.318 4.76-1.318 3.067 0 5.102 1.153 5.102 1.915 0 .763-2.035 1.916-5.101 1.916zM26.105 41.168l1.5-1.544a.938.938 0 00-1.344-1.307L24.043 40.6a13.246 13.246 0 00-2.202-.18c-3.977 0-6.977 1.63-6.977 3.79 0 2.161 3 3.791 6.977 3.791 3.977 0 6.976-1.63 6.976-3.79 0-1.274-1.043-2.362-2.712-3.042zm-4.264 4.957c-3.067 0-5.102-1.153-5.102-1.915 0-.763 2.035-1.916 5.102-1.916 3.066 0 5.101 1.153 5.101 1.916 0 .762-2.035 1.915-5.101 1.915z" fill="#000"/><path fill-rule="evenodd" clip-rule="evenodd" d="M20.451 25.573a.935.935 0 001.119-.712.937.937 0 00-.711-1.118l-2.578-.575a2.27 2.27 0 00.074-.576c0-1.757-1.954-2.943-4.193-3.477l4.184-8.378.02-.042c.425-.97.641-2 .641-3.066C19.007 3.422 15.585 0 11.378 0 7.173 0 3.75 3.422 3.75 7.629a7.573 7.573 0 00.662 3.108l4.187 8.386c-2.244.547-4.197 1.734-4.197 3.47 0 2.16 3 3.79 6.977 3.79 2.415 0 4.47-.603 5.71-1.559l3.362.748zM5.625 7.629a5.76 5.76 0 015.754-5.754 5.76 5.76 0 015.278 8.045L11.38 20.494 6.1 9.92a5.707 5.707 0 01-.475-2.291zm.652 14.963c0-.492 1.221-1.348 3.185-1.74l1.078 2.159a.937.937 0 001.678 0l1.08-2.164c1.986.376 3.182 1.23 3.182 1.745 0 .16-.091.337-.26.517a.915.915 0 00-.081.08c-.7.654-2.432 1.318-4.76 1.318-3.067 0-5.102-1.152-5.102-1.915zm23.27 12.752a.94.94 0 00-.938.938.94.94 0 00.938.937.94.94 0 00.937-.937.94.94 0 00-.937-.938zm-5.231-8.934a.94.94 0 00.937-.937.94.94 0 00-.937-.938.94.94 0 00-.938.938.94.94 0 00.938.937z" fill="#000"/></svg>