<svg width="48" height="48" fill="none" xmlns="http://www.w3.org/2000/svg"><g clip-path="url(#clip0_3255_175)" fill="#000"><path d="M28.364 13.09h-7.637c-.602 0-1.09.49-1.09 1.092v14.182h-5.455a1.091 1.091 0 000 2.181h5.454v3.273a1.091 1.091 0 002.182 0v-3.273h5.455a1.091 1.091 0 000-2.181h-5.455v-2.182h6.546a6.553 6.553 0 006.545-6.546 6.553 6.553 0 00-6.545-6.545zm0 10.91h-6.546v-8.727h6.546a4.368 4.368 0 014.363 4.363A4.368 4.368 0 0128.364 24z"/><path d="M24 0C10.767 0 0 10.767 0 24s10.767 24 24 24 24-10.767 24-24S37.233 0 24 0zm0 45.818C11.97 45.818 2.182 36.031 2.182 24 2.182 11.97 11.969 2.182 24 2.182c12.03 0 21.818 9.787 21.818 21.818 0 12.03-9.787 21.818-21.818 21.818z"/></g><defs><clipPath id="clip0_3255_175"><path fill="#fff" d="M0 0h48v48H0z"/></clipPath></defs></svg>