<svg width="64" height="64" fill="none" xmlns="http://www.w3.org/2000/svg"><path d="M63.45 52.844L52.638 42.031l5.304-5.303a1.875 1.875 0 00-.733-3.105l-31.82-10.607a1.875 1.875 0 00-2.372 2.372l10.607 31.82a1.875 1.875 0 003.105.733l5.303-5.303L52.844 63.45a1.872 1.872 0 002.652 0l7.955-7.955a1.875 1.875 0 000-2.652zm-9.28 6.63L43.356 48.66a1.875 1.875 0 00-2.651 0l-4.484 4.484L27.76 27.76l25.384 8.461-4.484 4.484a1.875 1.875 0 000 2.652L59.473 54.17l-5.303 5.303zM24.375 15c1.035 0 1.875-.84 1.875-1.875V1.875a1.875 1.875 0 00-3.75 0v11.25c0 1.036.84 1.875 1.875 1.875zM9.79 7.14a1.875 1.875 0 10-2.65 2.65l7.954 7.956a1.875 1.875 0 102.652-2.652L9.79 7.14zm5.304 23.864L7.14 38.959a1.875 1.875 0 102.652 2.652l7.955-7.955a1.875 1.875 0 10-2.652-2.652zm18.562-13.258L41.61 9.79a1.875 1.875 0 10-2.652-2.652l-7.955 7.955a1.875 1.875 0 002.652 2.652zM15 24.375c0-1.035-.84-1.875-1.875-1.875H1.875a1.875 1.875 0 000 3.75h11.25c1.036 0 1.875-.84 1.875-1.875z" fill="#fff"/></svg>