<svg width="64" height="64" fill="none" xmlns="http://www.w3.org/2000/svg"><g clip-path="url(#clip0_3250_146)" fill="#fff"><path d="M50.58 39.646c-1.31-1.364-2.89-2.094-4.565-2.094-1.662 0-3.256.716-4.62 2.08l-4.268 4.255c-.352-.189-.703-.365-1.04-.54a17.105 17.105 0 01-1.338-.716c-3.998-2.54-7.632-5.849-11.117-10.13-1.688-2.135-2.823-3.931-3.647-5.755 1.108-1.013 2.135-2.067 3.134-3.08.378-.378.757-.77 1.135-1.148 2.836-2.837 2.836-6.51 0-9.347l-3.688-3.688c-.418-.419-.85-.85-1.256-1.283a63.803 63.803 0 00-2.54-2.512c-1.31-1.297-2.877-1.986-4.524-1.986-1.648 0-3.242.689-4.593 1.986l-.027.027-4.593 4.633c-1.729 1.729-2.715 3.836-2.93 6.28-.325 3.945.837 7.619 1.728 10.023 2.188 5.903 5.457 11.374 10.333 17.236C18.081 50.952 25.2 56.53 33.331 60.461c3.107 1.472 7.253 3.215 11.887 3.512.283.014.58.027.85.027 3.12 0 5.741-1.121 7.794-3.35.014-.027.041-.04.055-.067.702-.851 1.512-1.621 2.363-2.445a53.22 53.22 0 001.756-1.743c1.338-1.391 2.04-3.012 2.04-4.673 0-1.675-.716-3.283-2.08-4.634l-7.416-7.442zm4.836 14.223c-.014 0-.014.014 0 0-.527.568-1.067 1.08-1.648 1.648-.878.838-1.77 1.716-2.607 2.702-1.364 1.459-2.972 2.147-5.079 2.147-.203 0-.419 0-.621-.013-4.012-.257-7.74-1.824-10.536-3.16-7.645-3.702-14.359-8.956-19.937-15.616-4.607-5.551-7.686-10.684-9.726-16.195-1.256-3.364-1.715-5.984-1.513-8.456.135-1.58.743-2.89 1.864-4.012l4.606-4.606c.662-.621 1.365-.959 2.054-.959.85 0 1.54.513 1.972.945l.04.041a67.41 67.41 0 012.431 2.418c.42.432.851.864 1.284 1.31l3.687 3.688c1.432 1.432 1.432 2.755 0 4.187-.391.392-.77.784-1.161 1.162-1.135 1.161-2.216 2.242-3.39 3.296-.028.027-.055.04-.068.067-1.162 1.162-.946 2.296-.703 3.066l.04.122c.96 2.323 2.31 4.512 4.364 7.119l.013.013c3.728 4.593 7.66 8.172 11.995 10.914.554.351 1.121.635 1.661.905.487.243.946.473 1.338.716.054.027.108.068.162.095.46.23.891.337 1.337.337 1.121 0 1.824-.702 2.053-.932l4.62-4.62c.46-.459 1.189-1.012 2.04-1.012.837 0 1.526.526 1.945.986l.027.027 7.442 7.442c1.392 1.378 1.392 2.797.014 4.228zM34.587 15.224c3.54.594 6.754 2.27 9.32 4.836a17.219 17.219 0 014.836 9.32 1.812 1.812 0 001.797 1.513c.108 0 .202-.014.31-.027a1.825 1.825 0 001.5-2.107c-.73-4.282-2.756-8.186-5.85-11.28a20.824 20.824 0 00-11.278-5.848c-1-.162-1.932.5-2.107 1.486-.176.986.473 1.945 1.472 2.107zm29.339 13.008C62.723 21.18 59.4 14.765 54.295 9.659S42.773 1.23 35.722.028c-.986-.176-1.918.5-2.094 1.486-.162 1 .5 1.931 1.5 2.107 6.294 1.067 12.035 4.052 16.6 8.604 4.566 4.566 7.538 10.307 8.605 16.601a1.812 1.812 0 001.796 1.513c.108 0 .203-.014.31-.027a1.79 1.79 0 001.487-2.08z"/></g><defs><clipPath id="clip0_3250_146"><path fill="#fff" d="M0 0h64v64H0z"/></clipPath></defs></svg>