<svg id="Jivo_black.svg" xmlns="http://www.w3.org/2000/svg" width="69" height="50" viewBox="0 0 69 50">
  <defs>
    <style>
      .cls-1 {
        fill: #0b1f35;
      }

      .cls-1, .cls-2 {
        fill-rule: evenodd;
      }

      .cls-2 {
        fill: #1bc339;
      }
    </style>
  </defs>
  <path id="Фигура_13" data-name="Фигура 13" class="cls-1" d="M222.211,28.477h-2.743a1.179,1.179,0,0,0-1.1,1.1V50.252a1.064,1.064,0,0,0,.33.777,1.03,1.03,0,0,0,.771.333h2.743a1.009,1.009,0,0,0,.738-0.333,0.993,0.993,0,0,0,.353-0.777V29.587a1.051,1.051,0,0,0-.353-0.744A0.937,0.937,0,0,0,222.211,28.477Zm25.027,0.056h-2.214a1.478,1.478,0,0,0-1.531.633l-6.323,13.99h-0.11l-6.026-13.99a1.015,1.015,0,0,0-.991-0.633h-2.985a0.939,0.939,0,0,0-.881.389,0.818,0.818,0,0,0,.055.888l9.8,21.509a1,1,0,0,0,.992.577h0.3a1,1,0,0,0,.936-0.577l9.8-21.508a0.821,0.821,0,0,0,.055-0.888A0.976,0.976,0,0,0,247.238,28.532Zm13.262-.521a10.915,10.915,0,0,0-8.162,3.509,11.6,11.6,0,0,0-3.393,8.361,11.889,11.889,0,0,0,3.371,8.45,11.089,11.089,0,0,0,16.291,0A11.8,11.8,0,0,0,272,39.88a11.6,11.6,0,0,0-3.393-8.361A10.866,10.866,0,0,0,260.5,28.011ZM265.292,45.1a6.594,6.594,0,0,1-9.617.034,7.412,7.412,0,0,1-1.949-5.241,7.144,7.144,0,0,1,1.949-5.108,6.413,6.413,0,0,1,4.825-2.043,6.264,6.264,0,0,1,4.792,2.043,7.14,7.14,0,0,1,1.949,5.108A7.544,7.544,0,0,1,265.292,45.1Zm-53.38-16.623H204.1a1.038,1.038,0,0,0-.738.356,1.049,1.049,0,0,0-.352.755v2.765a1.087,1.087,0,0,0,.352.777,1.05,1.05,0,0,0,.738.333h3.966V53.371a3.653,3.653,0,0,1-3.173,3.642H204.1a1.133,1.133,0,0,0-1.1,1.111v2.765a1.177,1.177,0,0,0,.3.777,1.041,1.041,0,0,0,.793.333h0.386a8.528,8.528,0,0,0,8.47-8.039,2.567,2.567,0,0,0,.044-0.522V29.587a1.063,1.063,0,0,0-.33-0.777A0.967,0.967,0,0,0,211.912,28.477Z" transform="translate(-203 -12)"/>
  <path id="Фигура_13_копия" data-name="Фигура 13 копия" class="cls-2" d="M203.067,12c-0.683,12.98,9.891,14.824,9.891,14.824C212.43,12.61,203.067,12,203.067,12Z" transform="translate(-203 -12)"/>
</svg>
