<svg width="14" height="17" viewBox="0 0 14 17" fill="none" xmlns="http://www.w3.org/2000/svg">
<path d="M7.00001 7.33334C7.65928 7.33334 8.30375 7.13784 8.85191 6.77157C9.40007 6.4053 9.82732 5.8847 10.0796 5.27562C10.3319 4.66653 10.3979 3.99631 10.2693 3.34971C10.1407 2.7031 9.82321 2.10916 9.35703 1.64298C8.89086 1.17681 8.29691 0.85934 7.65031 0.730722C7.00371 0.602105 6.33349 0.668116 5.7244 0.920408C5.11531 1.1727 4.59472 1.59994 4.22844 2.14811C3.86217 2.69627 3.66668 3.34074 3.66668 4.00001C3.66668 4.88406 4.01787 5.73191 4.64299 6.35703C5.26811 6.98215 6.11596 7.33334 7.00001 7.33334ZM13.425 12.5C11.7192 10.7993 9.40874 9.84434 7.00001 9.84434C4.59128 9.84434 2.2808 10.7993 0.57501 12.5L0.333344 12.75V16.5H13.6667V12.75L13.425 12.5Z" fill="white"/>
</svg>
