<svg width="18" height="18" viewBox="0 0 18 18" fill="none" xmlns="http://www.w3.org/2000/svg">
<path d="M0.766667 5.50834C1.39896 8.37759 2.83884 11.0061 4.91638 13.0836C6.99393 15.1612 9.62242 16.601 12.4917 17.2333C13.3936 17.415 14.3308 17.2556 15.1221 16.7861C15.9133 16.3166 16.5022 15.5703 16.775 14.6917L17.2 13.3583L13.0333 11.2833L11.05 13.2667C9.64082 12.6594 8.3555 11.7978 7.25833 10.725C6.20046 9.62438 5.35314 8.33929 4.75833 6.93334L6.71667 4.95001L4.64167 0.78334L3.30833 1.20834C2.42623 1.48129 1.67731 2.07282 1.20746 2.86772C0.737613 3.66261 0.580479 4.60394 0.766667 5.50834V5.50834Z" fill="black"/>
</svg>
