<svg width="64" height="64" viewBox="0 0 64 64" fill="none" xmlns="http://www.w3.org/2000/svg">
<path d="M63.4507 52.8442L52.6372 42.0307L57.9406 36.7275C58.4001 36.268 58.589 35.6033 58.4396 34.9708C58.2902 34.3383 57.8242 33.8283 57.2077 33.6228L25.388 23.0162C24.7144 22.7916 23.9714 22.967 23.4692 23.4692C22.967 23.9715 22.7916 24.7142 23.0162 25.388L33.6229 57.2078C33.8285 57.8243 34.3385 58.2905 34.9709 58.4397C35.6032 58.5893 36.268 58.4003 36.7275 57.9407L42.0309 52.6375L52.8444 63.4508C53.2105 63.817 53.6904 64.0001 54.1701 64.0001C54.6499 64.0001 55.1299 63.8171 55.4959 63.4508L63.4509 55.4958C64.1831 54.7636 64.1831 53.5765 63.4507 52.8442ZM54.17 59.4733L43.3565 48.66C42.6244 47.9277 41.437 47.9277 40.7049 48.66L36.221 53.1438L27.7596 27.7597L53.1437 36.2211L48.6599 40.705C47.9282 41.4365 47.9276 42.6245 48.6599 43.3566L59.4734 54.1701L54.17 59.4733Z" fill="white"/>
<path d="M24.375 15C25.4105 15 26.25 14.1605 26.25 13.125V1.875C26.25 0.8395 25.4105 0 24.375 0C23.3395 0 22.5 0.8395 22.5 1.875V13.125C22.5 14.1605 23.3395 15 24.375 15Z" fill="white"/>
<path d="M9.7909 7.13928C9.05878 6.40703 7.87153 6.40703 7.13928 7.13928C6.40703 7.87153 6.40703 9.05865 7.13928 9.7909L15.0943 17.7459C15.8264 18.4782 17.0138 18.4782 17.7459 17.7459C18.4782 17.0136 18.4782 15.8265 17.7459 15.0943L9.7909 7.13928Z" fill="white"/>
<path d="M15.0943 31.004L7.13928 38.959C6.40703 39.6913 6.40703 40.8784 7.13928 41.6106C7.8714 42.3429 9.05878 42.3429 9.7909 41.6106L17.7459 33.6556C18.4782 32.9234 18.4782 31.7363 17.7459 31.004C17.0136 30.2718 15.8264 30.2718 15.0943 31.004Z" fill="white"/>
<path d="M33.6557 17.7459L41.6107 9.7909C42.343 9.05865 42.343 7.87153 41.6107 7.13928C40.8786 6.40703 39.6914 6.40703 38.9591 7.13928L31.0041 15.0943C30.2719 15.8265 30.2719 17.0136 31.0041 17.7459C31.7362 18.4782 32.9236 18.4782 33.6557 17.7459Z" fill="white"/>
<path d="M15 24.375C15 23.3395 14.1605 22.5 13.125 22.5H1.875C0.8395 22.5 0 23.3395 0 24.375C0 25.4105 0.8395 26.25 1.875 26.25H13.125C14.1605 26.25 15 25.4105 15 24.375Z" fill="white"/>
</svg>
