<svg width="54" height="64" viewBox="0 0 54 64" fill="none" xmlns="http://www.w3.org/2000/svg">
<path d="M53.3819 11.3743V7.62425H23.9194V0H7.98699V7.62425H0.618118V11.3743H3.91324V60.25H0.618118V64H53.3817V60.25H50.0866V11.3743H53.3819ZM11.737 3.75H20.1694V7.62425H11.737V3.75ZM46.3366 48.0859H7.66337V23.5386H46.3367V48.0859H46.3366ZM7.66337 60.25V51.8359H46.3367V60.25H7.66337ZM46.3366 19.7886H7.66337V11.3743H46.3367V19.7886H46.3366Z" fill="white"/>
<path d="M27 43.7956C30.6031 43.7956 33.5345 40.8642 33.5345 37.2611C33.5345 33.1817 28.7731 28.9238 28.2302 28.4516L27 27.3818L25.7696 28.4517C25.2267 28.9238 20.4654 33.1818 20.4654 37.2612C20.4655 40.8642 23.3969 43.7956 27 43.7956ZM26.9952 32.487C27.272 32.7831 27.5736 33.1231 27.8757 33.4942C29.0889 34.9842 29.7846 36.3571 29.7846 37.2612C29.7846 38.7966 28.5355 40.0457 27.0001 40.0457C25.4647 40.0457 24.2156 38.7966 24.2156 37.2612C24.2155 35.9522 25.5982 33.9881 26.9952 32.487Z" fill="white"/>
</svg>
